<svg width="24" height="24" viewBox="0 0 24 24" fill="none" xmlns="http://www.w3.org/2000/svg">
<path fill-rule="evenodd" clip-rule="evenodd" d="M2 5C2 3.34315 3.34315 2 5 2H11C11.5523 2 12 2.44772 12 3C12 3.55228 11.5523 4 11 4H5C4.44772 4 4 4.44772 4 5V19C4 19.5523 4.44772 20 5 20H19C19.5523 20 20 19.5523 20 19V13.125C20 12.5727 20.4477 12.125 21 12.125C21.5523 12.125 22 12.5727 22 13.125V19C22 20.6569 20.6569 22 19 22H5C3.34315 22 2 20.6569 2 19V5Z" fill="#0D0D0D"/>
<path fill-rule="evenodd" clip-rule="evenodd" d="M19.1974 4C18.9845 4 18.7803 4.08457 18.6298 4.23509L18.1941 4.6708L19.3116 5.82359L19.7649 5.37021C19.9155 5.21969 20 5.01553 20 4.80265C20 4.58978 19.9155 4.38562 19.7649 4.23509C19.6144 4.08457 19.4102 4 19.1974 4ZM17.8972 7.23797L16.7797 6.08518L10.7528 12.1121L10.3744 13.6256L11.8879 13.2473L17.8972 7.23797ZM17.2156 2.82088C17.7412 2.29528 18.4541 2 19.1974 2C19.9407 2 20.6535 2.29528 21.1791 2.82088C21.7047 3.34648 22 4.05934 22 4.80265C22 5.54596 21.7047 6.25883 21.1791 6.78443L13.1062 14.8573C12.9781 14.9855 12.8175 15.0764 12.6417 15.1204L9.24256 15.9701C8.90178 16.0553 8.54129 15.9555 8.29291 15.7071C8.04453 15.4587 7.94468 15.0982 8.02988 14.7575L8.87966 11.3583C8.92362 11.1825 9.01453 11.0219 9.14269 10.8938L17.2156 2.82088Z" fill="#0D0D0D"/>
</svg>
