<svg width="24" height="24" viewBox="0 0 24 24" fill="none" xmlns="http://www.w3.org/2000/svg">
<path fill-rule="evenodd" clip-rule="evenodd" d="M2.08086 11.6061C2.99143 9.48143 5.39011 4 12 4C15.2544 4 17.4247 5.25776 18.9399 6.87988C20.1459 8.17094 20.9403 9.71187 21.5334 10.8623C21.657 11.102 21.7719 11.3248 21.8799 11.5249L22.1676 12.0576L21.8289 12.5595C21.6963 12.7559 21.5424 13 21.3672 13.2781C20.7396 14.2738 19.8378 15.7048 18.6548 16.9413C17.1043 18.5619 14.9479 20 12 20C9.06156 20 6.9144 18.6096 5.36163 17.0026C4.11775 15.7152 3.19708 14.2194 2.55058 13.1691C2.40657 12.9351 2.27617 12.7233 2.15883 12.5408L1.8717 12.0941L2.08086 11.6061ZM4.12801 11.9149C4.18383 12.0048 4.24056 12.0967 4.29832 12.1903C4.94628 13.2397 5.72401 14.4993 6.79992 15.6128C8.10869 16.9673 9.76922 18 12 18C14.2213 18 15.8899 16.9381 17.2097 15.5587C18.2362 14.4858 18.9795 13.3089 19.6021 12.323C19.6836 12.194 19.7631 12.0682 19.8408 11.9464C19.7982 11.8645 19.7554 11.782 19.7124 11.6989C19.1185 10.5529 18.4761 9.31319 17.4784 8.24512C16.308 6.99224 14.6533 6 12 6C7.15387 6 5.13812 9.64957 4.12801 11.9149Z" fill="#0D0D0D"/>
<path fill-rule="evenodd" clip-rule="evenodd" d="M12 10C10.8954 10 10 10.8954 10 12C10 13.1046 10.8954 14 12 14C13.1046 14 14 13.1046 14 12C14 10.8954 13.1046 10 12 10ZM8 12C8 9.79086 9.79086 8 12 8C14.2091 8 16 9.79086 16 12C16 14.2091 14.2091 16 12 16C9.79086 16 8 14.2091 8 12Z" fill="#0D0D0D"/>
</svg>
